<?xml version="1.0" encoding="iso-8859-1"?>
<!-- Generator: Adobe Illustrator 19.0.0, SVG Export Plug-In . SVG Version: 6.00 Build 0)  -->
<svg xmlns="http://www.w3.org/2000/svg" xmlns:xlink="http://www.w3.org/1999/xlink" version="1.1" id="Layer_1" x="0px" y="0px" viewBox="0 0 512 512" style="enable-background:new 0 0 512 512;" xml:space="preserve" width="512" height="512">
<g>
	<path d="M75,452h227v60c5.376,0,199.495,0,210,0V212H362c0-22.336,0-146.11,0-151v0l0,0c0-33.123-26.784-61-59.999-61H302H75   C33.541,0,0,34.535,0,76v15h60v271H0v15C0,418.355,33.645,452,75,452z M332,332h30v30h-30V332z M482,332v30h-30v-30H482z M422,362   h-30v-30h30V362z M422,422h-30v-30h30V422z M332,392h30v30h-30V392z M332,482v-30h30v30H332z M392,452h30v30h-30V452z M452,482v-90   h30v90H452z M482,302H332v-60h150V302z M75,29.99h175.435C244.936,39.326,242,49.975,242,61H32.558   C38.799,43.166,55.717,29.99,75,29.99z M90,91h182V61c0-16.804,13.738-31,30-31s30,14.196,30,31c0,11.93,0,130.198,0,151h-30v210   c-16.542,0-30-13.458-30-30v-30H90V91z M242,392c0,10.92,2.933,21.17,8.052,30H75c-19.556,0-36.239-12.539-42.43-30H242z"/>
	<rect x="120" y="122" width="152" height="30"/>
	<rect x="120" y="182" width="152" height="30"/>
	<rect x="120" y="242" width="152" height="30"/>
	<rect x="120" y="302" width="152" height="30"/>
</g>















</svg>
