<?xml version="1.0" encoding="iso-8859-1"?>
<!-- Generator: Adobe Illustrator 19.0.0, SVG Export Plug-In . SVG Version: 6.00 Build 0)  -->
<svg xmlns="http://www.w3.org/2000/svg" xmlns:xlink="http://www.w3.org/1999/xlink" version="1.1" id="Layer_1" x="0px" y="0px" viewBox="0 0 512 512" style="enable-background:new 0 0 512 512;" xml:space="preserve" width="512" height="512">
<g>
	<path d="M0,512h512V0H0V512z M30,271h211v211H30V271z M271,482V271h211v211H271z M482,241H271V30h211V241z M241,30v211H30V30H241z"/>
	<polygon points="121,211 151,211 151,151 211,151 211,121 151,121 151,60 121,60 121,121 60,121 60,151 121,151  "/>
	<polygon points="199.64,333.574 178.427,312.36 136,354.787 93.573,312.36 72.36,333.574 114.787,376 72.36,418.426 93.573,439.64    136,397.213 178.427,439.64 199.64,418.426 157.213,376  "/>
	<rect x="301" y="121" width="151" height="30"/>
	<rect x="301" y="361" width="151" height="30"/>
	<rect x="361" y="301" width="30" height="30"/>
	<rect x="361" y="421" width="30" height="30"/>
</g>















</svg>
