<?xml version="1.0" encoding="iso-8859-1"?>
<!-- Generator: Adobe Illustrator 19.0.0, SVG Export Plug-In . SVG Version: 6.00 Build 0)  -->
<svg xmlns="http://www.w3.org/2000/svg" xmlns:xlink="http://www.w3.org/1999/xlink" version="1.1" id="Layer_1" x="0px" y="0px" viewBox="0 0 512 512" style="enable-background:new 0 0 512 512;" xml:space="preserve" width="512" height="512">
<g>
	<path d="M31,407c0,27.28,32.432,41.021,60,44.15V512h330v-35.729l60-30c0-10.876,0-369.667,0-379.541l-60-30V0H91v61.85   C63.2,65.005,31,78.846,31,106c0,27.281,32.432,41.021,60,44.15v61.7c-27.8,3.155-60,16.996-60,44.15   c0,27.281,32.432,41.021,60,44.15v62.7C63.201,366.005,31,379.846,31,407z M61,407c0-6.641,22.563-12.789,30-13.902v27.804   C82.76,419.669,61,413.402,61,407z M121,393.098c8.24,1.233,30,7.5,30,13.902v75h-30V393.098z M121,242.098   c8.24,1.233,30,7.5,30,13.902v114.467c-8.807-3.783-19.061-6.376-30-7.617V242.098z M121,92.098c8.24,1.233,30,7.5,30,13.902   v113.467c-8.807-3.783-19.061-6.375-30-7.617V92.098z M451,427.729l-30,15v-56.459l30-15V427.729z M451,337.729l-30,15v-57.459   l30-15V337.729z M451,246.729l-30,15v-56.459l30-15V246.729z M451,85.271v71.459l-30,15V70.271L451,85.271z M391,482H181V30h210   V482z M151,30v39.467c-8.807-3.783-19.061-6.375-30-7.617V30H151z M61,106c0-6.641,22.563-12.789,30-13.902v27.804   C82.76,118.67,61,112.403,61,106z M61,256c0-6.641,22.563-12.79,30-13.902v27.804C82.76,268.67,61,262.402,61,256z"/>
	<path d="M361,181V91H211v90H361z M241,121h90v30h-90V121z"/>
</g>















</svg>
