<?xml version="1.0" encoding="iso-8859-1"?>
<!-- Generator: Adobe Illustrator 19.0.0, SVG Export Plug-In . SVG Version: 6.00 Build 0)  -->
<svg xmlns="http://www.w3.org/2000/svg" xmlns:xlink="http://www.w3.org/1999/xlink" version="1.1" id="Layer_1" x="0px" y="0px" viewBox="0 0 512.213 512.213" style="enable-background:new 0 0 512.213 512.213;" xml:space="preserve" width="512" height="512">
<g>
	<polygon points="196.107,302.213 226.107,302.213 226.107,271.213 256.107,271.213 256.107,181.213 196.107,181.213    196.107,151.213 256.107,151.213 256.107,121.213 226.107,121.213 226.107,91.213 196.107,91.213 196.107,121.213 166.107,121.213    166.107,211.213 226.107,211.213 226.107,241.213 166.107,241.213 166.107,271.213 196.107,271.213  "/>
	<path d="M331.107,0l-30,30l-30-30l-30,30l-30-30l-30,30l-30-30l-30,30l-30-30l-45,45v392.213c0,41.355,33.645,75,75,75h285   c33.084,0,60-26.916,60-60v-150h-90V45L331.107,0z M76.107,437.213V57.427l15-15l30,30l30-30l30,30l30-30l30,30l30-30l30,30l30-30   l15,15c0,17.568,0,377.329,0,394.787c0,10.925,2.949,21.167,8.072,30H121.107C96.294,482.213,76.107,462.026,76.107,437.213z    M436.107,452.213c0,16.542-13.458,30-30,30s-30-13.458-30-30v-120h60V452.213z"/>
	<rect x="106.107" y="332.213" width="210" height="30"/>
	<rect x="106.107" y="392.213" width="210" height="30"/>
</g>















</svg>
