<?xml version="1.0" encoding="iso-8859-1"?>
<!-- Generator: Adobe Illustrator 19.0.0, SVG Export Plug-In . SVG Version: 6.00 Build 0)  -->
<svg xmlns="http://www.w3.org/2000/svg" xmlns:xlink="http://www.w3.org/1999/xlink" version="1.1" id="Layer_1" x="0px" y="0px" viewBox="0 0 512 512" style="enable-background:new 0 0 512 512;" xml:space="preserve" width="512" height="512">
<g>
	<rect x="61" y="61" width="30" height="30"/>
	<rect x="121" y="61" width="30" height="30"/>
	<rect x="181" y="61" width="30" height="30"/>
	<rect x="271" y="61" width="181" height="30"/>
	<path d="M331,241v-15c0-24.813-20.187-45-45-45s-45,20.187-45,45v45h-30v30h30v105c0,8.271-6.729,15-15,15s-15-6.729-15-15v-15h-30   v15c0,24.813,20.187,45,45,45s45-20.187,45-45V301h30v-30h-30v-45c0-8.271,6.729-15,15-15s15,6.729,15,15v15H331z"/>
	<polygon points="395.394,335.394 361,369.787 326.606,335.394 305.394,356.606 339.787,391 305.394,425.394 326.606,446.606    361,412.213 395.394,446.606 416.606,425.394 382.213,391 416.606,356.606  "/>
	<path d="M0,512h512V0H0V512z M30,451h61v31H30V451z M91,181H30v-30h61V181z M91,211v30H30v-30H91z M91,271v30H30v-30H91z M91,331   v30H30v-30H91z M91,391v30H30v-30H91z M121,482V151h361v331H121z M482,30v91H30V30H482z"/>
</g>















</svg>
