<?xml version="1.0" encoding="iso-8859-1"?>
<!-- Generator: Adobe Illustrator 19.0.0, SVG Export Plug-In . SVG Version: 6.00 Build 0)  -->
<svg xmlns="http://www.w3.org/2000/svg" xmlns:xlink="http://www.w3.org/1999/xlink" version="1.1" id="Layer_1" x="0px" y="0px" viewBox="0 0 512 512" style="enable-background:new 0 0 512 512;" xml:space="preserve" width="512" height="512">
<g>
	<path d="M31,282.459V286c0,41.355,33.645,75,75,75s75-33.645,75-75v-3.541l-60-120V90h120v121h-30v90h20.729L211,342.459V422h-90   v90h270v-90h-90v-79.541L280.271,301H301v-90h-30V90h120v72.459l-60,120V286c0,41.355,33.645,75,75,75s75-33.645,75-75v-3.541   l-60-120V83.028l38.32-25.547L442.68,32.519L401.458,60H298.42c1.665-4.695,2.58-9.742,2.58-15c0-24.813-20.187-45-45-45   s-45,20.187-45,45c0,5.258,0.915,10.305,2.58,15H110.542L69.32,32.519L52.68,57.481L91,83.028v79.431L31,282.459z M241,241h30v30   h-30V241z M361,482H151v-30h210V482z M241,422v-72.459l15-30l15,30V422H241z M106,199.541L141.73,271H70.27L106,199.541z M106,331   c-19.554,0-36.225-12.552-42.417-30.01h84.834C142.225,318.448,125.554,331,106,331z M406,199.541L441.73,271H370.27L406,199.541z    M406,331c-19.554,0-36.225-12.552-42.417-30.01h84.834C442.225,318.448,425.554,331,406,331z M241,45c0-8.271,6.729-15,15-15   s15,6.729,15,15s-6.729,15-15,15S241,53.271,241,45z"/>
</g>















</svg>
