<?xml version="1.0" encoding="iso-8859-1"?>
<!-- Generator: Adobe Illustrator 19.0.0, SVG Export Plug-In . SVG Version: 6.00 Build 0)  -->
<svg xmlns="http://www.w3.org/2000/svg" xmlns:xlink="http://www.w3.org/1999/xlink" version="1.1" id="Layer_1" x="0px" y="0px" viewBox="0 0 512 512" style="enable-background:new 0 0 512 512;" xml:space="preserve" width="512" height="512">
<g>
	<path d="M499.541,436l-90-45H31v90h378.541L499.541,436z M361,421v30H121v-30H361z M61,421h30v30H61V421z M391,451v-30h11.459   l30,15l-30,15H391z"/>
	<path d="M0,361h512V211H0V361z M30,241h31v60h30v-60h30v30h30v-30h30v60h30v-60h30v30h30v-30h30v60h30v-60h30v30h30v-30h30v60h30   v-60h31v90H30V241z"/>
	<path d="M481,31H271v30h-30V31H31v30H0v30h32.076c7.301,50.816,51.12,90,103.924,90s96.623-39.184,103.924-90h32.152   c7.301,50.816,51.12,90,103.924,90s96.623-39.184,103.924-90H512V61h-31V31z M211,76c0,41.355-33.645,75-75,75s-75-33.645-75-75V61   h150V76z M451,76c0,41.355-33.645,75-75,75s-75-33.645-75-75V61h150V76z"/>
</g>















</svg>
