<?xml version="1.0" encoding="iso-8859-1"?>
<!-- Generator: Adobe Illustrator 19.0.0, SVG Export Plug-In . SVG Version: 6.00 Build 0)  -->
<svg xmlns="http://www.w3.org/2000/svg" xmlns:xlink="http://www.w3.org/1999/xlink" version="1.1" id="Layer_1" x="0px" y="0px" viewBox="0 0 512 512" style="enable-background:new 0 0 512 512;" xml:space="preserve" width="512" height="512">
<g>
	<path d="M467,211c24.813,0,45-20.187,45-45s-20.187-45-45-45h-16V61h-60V46c0-24.86-20.091-46-45-46c-24.859,0-45,21.095-45,46v15   h-90V46c0-24.86-20.091-46-45-46c-24.859,0-45,21.095-45,46v15H61v60H45c-24.813,0-45,20.187-45,45s20.187,45,45,45h16v60l90,0v-45   c0-8.271,6.729-15,15-15s15,6.729,15,15v45h60v60h45c8.271,0,15,6.729,15,15s-6.729,15-15,15h-45v90h60v16   c0,24.813,20.187,45,45,45s45-20.187,45-45v-16h60v-60h16c24.813,0,45-20.187,45-45s-20.187-45-45-45h-16v-90H467z M241,241h-30   v-15c0-24.813-20.187-45-45-45s-45,20.187-45,45v15l-30,0.01V181H45c-8.271,0-15-6.729-15-15s6.729-15,15-15h46V91h60V46   c0-8.523,7.009-16,15-16s15,7.477,15,16v45h60V241z M467,331c8.271,0,15,6.729,15,15s-6.729,15-15,15h-46v60h-60v46   c0,8.271-6.729,15-15,15s-15-6.729-15-15v-46h-60v-30h15c24.813,0,45-20.187,45-45s-20.187-45-45-45h-15v-30h150v60H467z M421,181   v60H271V91h60V46c0-8.523,7.009-16,15-16s15,7.477,15,16v45h60v60h46c8.271,0,15,6.729,15,15s-6.729,15-15,15H421z"/>
</g>















</svg>
