<?xml version="1.0" encoding="iso-8859-1"?>
<!-- Generator: Adobe Illustrator 19.0.0, SVG Export Plug-In . SVG Version: 6.00 Build 0)  -->
<svg xmlns="http://www.w3.org/2000/svg" xmlns:xlink="http://www.w3.org/1999/xlink" version="1.1" id="Layer_1" x="0px" y="0px" viewBox="0 0 511.917 511.917" style="enable-background:new 0 0 511.917 511.917;" xml:space="preserve" width="512" height="512">
<g>
	<rect x="331.018" y="150.917" width="30" height="30"/>
	<rect x="271.018" y="150.917" width="30" height="30"/>
	<path d="M511.899,209.263l-8.763-28.691l-82.119,25.081V90.917h-270V58.421l271.57-28.586L419.448,0L135.232,29.917H75.018   c-20.038,0-38.915,8.022-53.153,22.588C7.777,66.918,0.018,85.887,0.018,105.917v406h421V388.02l90.881-27.757l-8.763-28.691   l-82.119,25.081V237.02L511.899,209.263z M151.018,391.917h120v30h-120V391.917z M30.018,361.917v-121h91v60h180v-60h90v121H30.018   z M151.018,240.917h120v30h-120V240.917z M75.018,59.917h46v61h270v90h-361v-105C30.018,80.983,50.625,59.917,75.018,59.917z    M30.018,481.917v-90h91v60h180v-60h90v90H30.018z"/>
</g>















</svg>
