<?xml version="1.0" encoding="iso-8859-1"?>
<!-- Generator: Adobe Illustrator 19.0.0, SVG Export Plug-In . SVG Version: 6.00 Build 0)  -->
<svg xmlns="http://www.w3.org/2000/svg" xmlns:xlink="http://www.w3.org/1999/xlink" version="1.1" id="Layer_1" x="0px" y="0px" viewBox="0 0 512 512" style="enable-background:new 0 0 512 512;" xml:space="preserve" width="512" height="512">
<g>
	<path d="M482,195c0,17.608-10.483,33.484-25.956,40.772C431.3,202,391.193,180,346,180H179.493c-6.969-34.191-37.274-60-73.493-60   H91v82.929C67.144,219.094,48.833,242.818,39.169,270H0v121h54.35c16.146,23.987,39.716,42.38,66.65,52.079V512h90v-61h90v61h90   v-69.174c53.924-19.213,91-70.621,91-127.826c0-18.864-3.924-36.834-10.995-53.155C496.655,248.757,512,222.684,512,195v-15h-30   V195z M372.239,417.237L361,420.147V482h-30v-61H181v61h-30v-61.535l-11.203-2.932C90.923,404.744,73.283,363.387,71.268,361H30   v-61h31.853c1.929-4.306,6.351-49.328,51.719-75.855l7.428-4.344V152.57c17.461,6.191,30,22.873,30,42.43v15h195   c58.449,0,106,47.103,106,105C452,362.27,418.456,405.267,372.239,417.237z"/>
	<rect x="211" y="240" width="150" height="30"/>
	<path d="M361,75c0-41.355-33.645-75-75-75s-75,33.645-75,75s33.645,75,75,75S361,116.355,361,75z M241,75c0-24.813,20.187-45,45-45   s45,20.187,45,45s-20.187,45-45,45S241,99.813,241,75z"/>
	<rect x="271" y="60" width="30" height="30"/>
	<rect x="91" y="270" width="30" height="30"/>
</g>















</svg>
