<?xml version="1.0" encoding="iso-8859-1"?>
<!-- Generator: Adobe Illustrator 19.0.0, SVG Export Plug-In . SVG Version: 6.00 Build 0)  -->
<svg xmlns="http://www.w3.org/2000/svg" xmlns:xlink="http://www.w3.org/1999/xlink" version="1.1" id="Layer_1" x="0px" y="0px" viewBox="0 0 512 512" style="enable-background:new 0 0 512 512;" xml:space="preserve" width="512" height="512">
<g>
	<path d="M301,196h-30c0,8.271-6.729,15-15,15s-15-6.729-15-15h-30c0,24.813,20.187,45,45,45S301,220.813,301,196z"/>
	<path d="M380.107,319.524L301,303.703V301v-10.509c36.284-17.254,60-53.986,60-94.491V75c0-41.355-33.645-75-75-75h-60   c-41.355,0-75,33.645-75,75v121c0,40.505,23.716,77.236,60,94.491V301v2.703l-79.107,15.821C90.815,327.74,61,364.108,61,406v106   h390V406C451,364.108,421.185,327.74,380.107,319.524z M181,75c0-24.813,20.187-45,45-45h60c24.813,0,45,20.187,45,45v16h-51.213   l-30,30H181V75z M231.024,266.355C201.103,255.718,181,227.445,181,196v-45h81.213l30-30H331v75   c0,31.445-20.103,59.718-50.024,70.355L271,269.902V301h-30v-31.098L231.024,266.355z M271,331v30h-30v-30H271z M239.255,391   h33.489l11.281,91h-56.051L239.255,391z M91,406c0-27.641,19.672-51.637,46.777-57.059L211,334.297v40.776L197.745,482H151v-61h-30   v61H91V406z M421,482h-30v-61h-30v61h-46.745L301,375.073v-40.776l73.223,14.645C401.328,354.363,421,378.359,421,406V482z"/>
</g>















</svg>
