<?xml version="1.0" encoding="iso-8859-1"?>
<!-- Generator: Adobe Illustrator 19.0.0, SVG Export Plug-In . SVG Version: 6.00 Build 0)  -->
<svg xmlns="http://www.w3.org/2000/svg" xmlns:xlink="http://www.w3.org/1999/xlink" version="1.1" id="Layer_1" x="0px" y="0px" viewBox="0 0 511.719 511.719" style="enable-background:new 0 0 511.719 511.719;" xml:space="preserve" width="512" height="512">
<g>
	<path d="M60.94,472.148c52.749,52.749,138.139,52.778,190.931-0.012l133.541-133.853l-21.238-21.188L230.646,450.935   c-40.939,40.939-107.553,40.939-148.493,0c-40.939-40.939-40.939-107.553,0.007-148.499L332.366,51.917   c29.243-29.243,76.824-29.242,106.066,0c29.242,29.242,29.242,76.823-0.007,106.073L190.488,406.239   c-16.733,16.733-42.546,19.849-60.043,7.249c-23.642-17.027-24.918-49.567-5.858-68.626L342.98,126.155l-21.229-21.198   L103.367,323.655c-32.708,32.707-28.378,86.863,9.546,114.176c29.349,21.137,71.816,16.594,98.795-10.386l247.937-248.25   c40.939-40.939,40.939-107.552,0-148.492c-40.94-40.939-107.553-40.939-148.499,0.007L60.94,281.229   C8.183,333.987,8.175,419.383,60.94,472.148z"/>
</g>















</svg>
