<?xml version="1.0" encoding="iso-8859-1"?>
<!-- Generator: Adobe Illustrator 19.0.0, SVG Export Plug-In . SVG Version: 6.00 Build 0)  -->
<svg xmlns="http://www.w3.org/2000/svg" xmlns:xlink="http://www.w3.org/1999/xlink" version="1.1" id="Layer_1" x="0px" y="0px" viewBox="0 0 512 512" style="enable-background:new 0 0 512 512;" xml:space="preserve" width="512" height="512">
<g>
	<path d="M31.562,512h449.015l31.332-332h-29.982V60h-215.73L236.194,0H29.927v240H0.091L31.562,512z M453.276,482H58.291   L33.762,270h262.435l30-60h152.748L453.276,482z M391.927,180h-84.271l-30,60H119.927v-90h272V180z M59.927,30h157.728l30.002,60   h204.27v90h-30v-60h-332v120h-30V30z"/>
	<rect x="331.927" y="362" width="90" height="30"/>
	<rect x="331.927" y="422" width="90" height="30"/>
</g>















</svg>
