<?xml version="1.0" encoding="iso-8859-1"?>
<!-- Generator: Adobe Illustrator 19.0.0, SVG Export Plug-In . SVG Version: 6.00 Build 0)  -->
<svg xmlns="http://www.w3.org/2000/svg" xmlns:xlink="http://www.w3.org/1999/xlink" version="1.1" id="Layer_1" x="0px" y="0px" viewBox="0 0 512 512" style="enable-background:new 0 0 512 512;" xml:space="preserve" width="512" height="512">
<g>
	<rect x="61" y="61" width="30" height="30"/>
	<rect x="121" y="61" width="30" height="30"/>
	<rect x="181" y="61" width="30" height="30"/>
	<rect x="271" y="61" width="181" height="30"/>
	<path d="M0,512h512V0H0V512z M30,451h61v31H30V451z M91,181H30v-30h61V181z M91,211v30H30v-30H91z M91,271v30H30v-30H91z M91,331   v30H30v-30H91z M91,391v30H30v-30H91z M121,482V151h361v331H121z M482,30v91H30V30H482z"/>
	<polygon points="297.25,316 196,451 391,451 391,391 361,391 361,421 256,421 334.75,316 256,211 361,211 361,241 391,241 391,181    196,181  "/>
</g>















</svg>
