<?xml version="1.0" encoding="iso-8859-1"?>
<!-- Generator: Adobe Illustrator 19.0.0, SVG Export Plug-In . SVG Version: 6.00 Build 0)  -->
<svg xmlns="http://www.w3.org/2000/svg" xmlns:xlink="http://www.w3.org/1999/xlink" version="1.1" id="Layer_1" x="0px" y="0px" viewBox="0 0 512 512" style="enable-background:new 0 0 512 512;" xml:space="preserve" width="512" height="512">
<g>
	<path d="M301,45c0-24.813-20.187-45-45-45s-45,20.187-45,45v16H0v30h31v270H0v30h91v121h90v-61h150v61h90V391h91v-30h-30V91h30V61   H301V45z M241,45c0-8.271,6.729-15,15-15s15,6.729,15,15v16h-30V45z M121,482v-91h30v91H121z M181,421v-30h150v30H181z M391,482   h-30v-91h30V482z M452,361H61V91h391V361z"/>
	<path d="M421,331v-30H301v-68.787l60-60V211h30v-90h-90v30h38.787L286,204.787l-60-60l-60,60l-45-45V121H91v210H421z M181,232.213   l30-30V301h-30V232.213z M241,301v-98.787l30,30V301H241z M151,232.213V301h-30v-98.787L151,232.213z"/>
</g>















</svg>
