<?xml version="1.0" encoding="iso-8859-1"?>
<!-- Generator: Adobe Illustrator 19.0.0, SVG Export Plug-In . SVG Version: 6.00 Build 0)  -->
<svg xmlns="http://www.w3.org/2000/svg" xmlns:xlink="http://www.w3.org/1999/xlink" version="1.1" id="Layer_1" x="0px" y="0px" viewBox="0 0 512 512" style="enable-background:new 0 0 512 512;" xml:space="preserve" width="512" height="512">
<g>
	<path d="M361,242c-40.056,0-76.087,17.542-100.832,45.34c-15.791-25.106-37.976-46.117-65.885-60.423   C280.952,181.646,285.927,90.203,286,90V0H16v90c1.218,3.368,5.951,92.076,91.661,136.887C21.819,270.819,17.315,358.471,16,362v90   h232.806c24.247,36.154,65.487,60,112.194,60c74.439,0,135-60.561,135-135S435.439,242,361,242z M151,308.213L204.787,362H97.213   L151,308.213z M241.243,314.737c-4.906,9.397-8.735,19.439-11.329,29.964L166,280.787v-33.668   C198.758,259.317,225.447,283.218,241.243,314.737z M46,30h210v30H46V30z M255.185,90c-1.158,10.661-3.532,21.053-6.987,31H53.802   c-3.455-9.947-5.829-20.339-6.987-31H255.185z M68.328,150.99h165.344c-18.751,29.469-47.998,51.864-82.672,60.548   C116.327,202.854,87.079,180.459,68.328,150.99z M136,247.131v33.655L54.787,362h-7.981C52.416,309.898,86.952,265.46,136,247.131z    M46,422v-30h180.838c1.155,10.399,3.496,20.445,6.884,30H46z M256,377c0-52.805,39.184-96.623,90-103.924V302h-30v90h60v30h-60v30   h30v28.924C295.184,473.623,256,429.805,256,377z M376,480.924V452h30v-90h-60v-30h60v-30h-30v-28.924   c50.816,7.301,90,51.119,90,103.924S426.816,473.623,376,480.924z"/>
</g>















</svg>
