<?xml version="1.0" encoding="iso-8859-1"?>
<!-- Generator: Adobe Illustrator 19.0.0, SVG Export Plug-In . SVG Version: 6.00 Build 0)  -->
<svg xmlns="http://www.w3.org/2000/svg" xmlns:xlink="http://www.w3.org/1999/xlink" version="1.1" id="Layer_1" x="0px" y="0px" viewBox="0 0 512 512" style="enable-background:new 0 0 512 512;" xml:space="preserve" width="512" height="512">
<g>
	<path d="M385.271,0H126.729l-30,60H61v90h31.192l30,362h267.616l30-362H451V60h-35.729L385.271,0z M145.271,30h221.459l15,30   H130.271L145.271,30z M367.289,420.49c-28.134-3.293-52.433-22.349-62.026-49.489L301.729,361H139.781l-2.486-30h164.435   l3.535-10.001C315.834,291.093,344.261,271,376,271c1.225,0,2.449,0.035,3.67,0.094L367.289,420.49z M149.808,482l-7.541-91   h138.839c15.63,32.934,47.46,55.509,83.705,59.399L362.192,482H149.808z M382.149,241.182C380.103,241.063,378.052,241,376,241   c-40.79,0-77.674,23.714-94.895,60H134.808l-12.514-151H151v76c0,24.813,20.187,45,45,45s45-20.187,45-45v-76h30v31h30v-31h88.706   L382.149,241.182z M181,150h30v76c0,8.271-6.729,15-15,15s-15-6.729-15-15V150z M421,120H91V90h330V120z"/>
	<rect x="271" y="211" width="30" height="30"/>
</g>















</svg>
