<?xml version="1.0" encoding="iso-8859-1"?>
<!-- Generator: Adobe Illustrator 19.0.0, SVG Export Plug-In . SVG Version: 6.00 Build 0)  -->
<svg xmlns="http://www.w3.org/2000/svg" xmlns:xlink="http://www.w3.org/1999/xlink" version="1.1" id="Layer_1" x="0px" y="0px" viewBox="0 0 512 512" style="enable-background:new 0 0 512 512;" xml:space="preserve" width="512" height="512">
<g>
	<path d="M302,481c5.376,0,199.495,0,210,0V181h-90V31H0c0,83.162,0,304.074,0,390h302V481z M482,301v30h-30v-30H482z M422,331h-30   v-30h30V331z M422,391h-30v-30h30V391z M362,391h-30v-30h30V391z M362,331h-30v-30h30V331z M332,451v-30h30v30H332z M392,421h30v30   h-30V421z M452,451v-90h30v90H452z M482,271H332v-60h150V271z M152.198,151H120v30h32.198c1.744,10.88,5.383,21.104,10.696,30   H117.43c-4.527-12.768-14.662-22.903-27.43-27.43V148.43c12.768-4.527,22.903-14.672,27.43-27.44h45.464   C157.58,129.886,153.942,140.12,152.198,151z M181,166c0-24.393,13.738-45,30-45s30,20.607,30,45s-13.738,45-30,45   S181,190.393,181,166z M269.802,181H302v-30h-32.198c-1.744-10.88-5.383-21.104-10.696-30h45.464   c4.526,12.768,14.662,22.903,27.43,27.43V181h-30v30h-42.893C264.42,202.104,268.058,191.88,269.802,181z M30,61h362v120h-30v-60   h-15c-8.271,0-15-6.729-15-15V91H90v15c0,8.271-6.729,15-15,15H60v90h15c8.271,0,15,6.729,15,15v15h212v30H30V61z M30,301h272v30   H30V301z M30,391v-30h272v30H30z"/>
</g>















</svg>
