<?xml version="1.0" encoding="iso-8859-1"?>
<!-- Generator: Adobe Illustrator 19.0.0, SVG Export Plug-In . SVG Version: 6.00 Build 0)  -->
<svg xmlns="http://www.w3.org/2000/svg" xmlns:xlink="http://www.w3.org/1999/xlink" version="1.1" id="Layer_1" x="0px" y="0px" viewBox="0 0 512 512" style="enable-background:new 0 0 512 512;" xml:space="preserve" width="512" height="512">
<g>
	<path d="M512,61h-60V45c0-24.813-20.187-45-45-45s-45,20.187-45,45v16h-61V45c0-24.813-20.187-45-45-45c-24.813,0-45,20.187-45,45   v16h-61V45c0-24.813-20.187-45-45-45S60,20.187,60,45v16H0v451h512V61z M392,45c0-8.271,6.729-15,15-15s15,6.729,15,15v16h-30V45z    M241,45c0-8.271,6.729-15,15-15s15,6.729,15,15v16h-30V45z M90,45c0-8.271,6.729-15,15-15s15,6.729,15,15v16H90V45z M120,91v15   c0,8.271-6.729,15-15,15s-15-6.729-15-15H60c0,24.813,20.187,45,45,45s45-20.187,45-45V91h121v15c0,8.271-6.729,15-15,15   s-15-6.729-15-15h-30c0,24.813,20.187,45,45,45c24.813,0,45-20.187,45-45V91h121v15c0,8.271-6.729,15-15,15s-15-6.729-15-15h-30   c0,24.813,20.187,45,45,45s45-20.187,45-45V91h30v91H30V91H120z M30,482V212h452v270H30z"/>
	<path d="M241,302H60v150h301v-60h91V242H241V302z M331,362h-60v-30h60V362z M241,422h-61v-30h61V422z M180,362v-30h61v30H180z    M150,332v30H90v-30H150z M90,392h60v30H90V392z M331,422h-60v-30h60V422z M361,362v-30h61v30H361z M422,302h-61v-30h61V302z    M331,272v30h-60v-30H331z"/>
</g>















</svg>
