<?xml version="1.0" encoding="iso-8859-1"?>
<!-- Generator: Adobe Illustrator 19.0.0, SVG Export Plug-In . SVG Version: 6.00 Build 0)  -->
<svg xmlns="http://www.w3.org/2000/svg" xmlns:xlink="http://www.w3.org/1999/xlink" version="1.1" id="Layer_1" x="0px" y="0px" viewBox="0 0 512 512" style="enable-background:new 0 0 512 512;" xml:space="preserve" width="512" height="512">
<g>
	<path d="M131.893,319.524C90.815,327.74,61,364.108,61,406v106h390V406c0-41.892-29.814-78.26-70.894-86.476L301,303.703V290.49   c36.284-17.254,60-53.986,60-94.49v-76c33.084,0,60-26.916,60-60S394.084,0,361,0c-22.549,0-43.369,12.656-53.637,33.117   C300.588,31.1,293.422,30,286,30h-60c-41.355,0-75,33.645-75,75v91c0,40.505,23.716,77.237,60,94.49v13.212L131.893,319.524z    M271,482h-30v-61h30V482z M91,406c0-27.641,19.672-51.637,46.777-57.058L211,334.297V482h-60v-61h-30v61H91V406z M374.224,348.942   C401.327,354.363,421,378.359,421,406v76h-30v-61h-30v61h-60V334.297L374.224,348.942z M361,30c16.542,0,30,13.458,30,30   s-13.458,30-30,30c-0.51,0-1.014-0.039-1.521-0.064c-3.483-17.015-12.748-31.946-25.641-42.651C338.685,37.026,349.202,30,361,30z    M226,60h60c24.813,0,45,20.187,45,45v41l-36.923-56H183.58C189.772,72.541,206.445,60,226,60z M181,196v-76h96.923l52.938,80.288   c-3.329,57.035-57.798,68.197-59.861,69.613c0,3.283,0,117.79,0,121.099h-30c0-3.303,0-117.793,0-121.099   C240.629,269.639,181,254.814,181,196z"/>
	<path d="M301,196h-30c0,8.271-6.729,15-15,15s-15-6.729-15-15h-30c0,24.813,20.187,45,45,45C280.813,241,301,220.813,301,196z"/>
</g>















</svg>
