<?xml version="1.0" encoding="iso-8859-1"?>
<!-- Generator: Adobe Illustrator 19.0.0, SVG Export Plug-In . SVG Version: 6.00 Build 0)  -->
<svg xmlns="http://www.w3.org/2000/svg" xmlns:xlink="http://www.w3.org/1999/xlink" version="1.1" id="Layer_1" x="0px" y="0px" viewBox="0 0 512 512" style="enable-background:new 0 0 512 512;" xml:space="preserve" width="512" height="512">
<g>
	<path d="M30,298.42V512h452V298.42c17.459-6.192,30-22.865,30-42.42V91H362V0H151v91H0v165C0,275.555,12.541,292.228,30,298.42z    M332,331v-30h120v92.076c-45.916,6.597-82.327,43.008-88.924,88.924H149.914c-6.667-45.963-43.493-82.401-89.914-88.944V301h121   v30H332z M211,301v-30h91v30H211z M60,423.474c29.829,5.917,53.397,29.117,59.471,58.526H60V423.474z M393.509,482   c5.98-29.344,29.147-52.51,58.491-58.491V482H393.509z M181,30h151v61H181V30z M30,121h452v135c0,8.271-6.729,15-15,15H332v-30H181   v30H45c-8.271,0-15-6.729-15-15V121z"/>
</g>















</svg>
