<?xml version="1.0" encoding="iso-8859-1"?>
<!-- Generator: Adobe Illustrator 19.0.0, SVG Export Plug-In . SVG Version: 6.00 Build 0)  -->
<svg xmlns="http://www.w3.org/2000/svg" xmlns:xlink="http://www.w3.org/1999/xlink" version="1.1" id="Layer_1" x="0px" y="0px" viewBox="0 0 512 512" style="enable-background:new 0 0 512 512;" xml:space="preserve" width="512" height="512">
<g>
	<path d="M512,61H0c0,15.681,0,371.563,0,390h512C512,433.896,512,77.773,512,61z M30,91h452v30H30V91z M482,421H30V151h452V421z"/>
	<path d="M166,391c58.449,0,106-47.103,106-105s-47.551-105-106-105S60,228.103,60,286S107.551,391,166,391z M91.529,301h29.859   c0.953,18.323,3.683,36.065,8.331,50.886C110.353,341.459,96.064,322.959,91.529,301z M180.568,271h-29.137   c1.909-32.549,9.728-52.49,14.568-58.639C170.84,218.51,178.66,238.451,180.568,271z M180.568,301   c-1.909,32.549-9.728,52.49-14.568,58.639c-4.84-6.149-12.66-26.09-14.568-58.639H180.568z M202.281,351.886   c4.648-14.821,7.378-32.573,8.331-50.896h29.859C235.936,322.949,221.647,341.459,202.281,351.886z M240.471,271h-29.859   c-0.953-18.323-3.683-36.065-8.331-50.886C221.647,230.541,235.936,249.041,240.471,271z M129.719,220.114   c-4.648,14.821-7.378,32.563-8.331,50.886H91.529C96.064,249.041,110.353,230.541,129.719,220.114z"/>
	<rect x="302" y="301" width="150" height="30"/>
	<rect x="302" y="361" width="150" height="30"/>
	<rect x="302" y="241" width="30" height="30"/>
	<rect x="362" y="241" width="30" height="30"/>
	<rect x="422" y="241" width="30" height="30"/>
</g>















</svg>
