<?xml version="1.0" encoding="iso-8859-1"?>
<!-- Generator: Adobe Illustrator 19.0.0, SVG Export Plug-In . SVG Version: 6.00 Build 0)  -->
<svg xmlns="http://www.w3.org/2000/svg" xmlns:xlink="http://www.w3.org/1999/xlink" version="1.1" id="Layer_1" x="0px" y="0px" viewBox="0 0 512 512" style="enable-background:new 0 0 512 512;" xml:space="preserve" width="512" height="512">
<g>
	<polygon points="90,421 120,421 120,391 150,391 150,301 90,301 90,271 150,271 150,241 120,241 120,211 90,211 90,241 60,241    60,331 120,331 120,361 60,361 60,391 90,391  "/>
	<path d="M45,481h467V151h-60V91h-60V31h-90v120h-61V91H45c-24.813,0-45,20.187-45,45l0,0v300C0,460.813,20.187,481,45,481z    M422,121v30h-30v-30H422z M347,372.459l-15-30V331h30v11.459L347,372.459z M332,301V121h30v180H332z M362,61v30h-30V61H362z    M302,181v90H180v30h122v30H180v30h127.729l15,30H180v30c60.081,0,218.367,0,272,0v-30h-80.729l15-30H452v-30h-60v-30h60v-30h-60   v-90h30v60h30v-60h30v270H45c-8.271,0-15-6.729-15-15V178.42c4.695,1.665,9.742,2.58,15,2.58C50.225,181,294.877,181,302,181z    M45,121h166v30H45c-8.271,0-15-6.729-15-15S36.729,121,45,121z"/>
</g>















</svg>
