<?xml version="1.0" encoding="iso-8859-1"?>
<!-- Generator: Adobe Illustrator 19.0.0, SVG Export Plug-In . SVG Version: 6.00 Build 0)  -->
<svg xmlns="http://www.w3.org/2000/svg" xmlns:xlink="http://www.w3.org/1999/xlink" version="1.1" id="Layer_1" x="0px" y="0px" viewBox="0 0 512 512" style="enable-background:new 0 0 512 512;" xml:space="preserve" width="512" height="512">
<g>
	<polygon points="331,301 301,301 301,422 271,422 271,331 241,331 241,422 210,422 210,361 180,361 180,452 331,452  "/>
	<path d="M120,391v121h271V391h48.489L512,355.339V121h-61V61h-60V0H120v61H60v60H0v234.271L71.459,391H120z M90,361v-90h30v90H90z    M361,482H150V271h211V482z M391,271h30v90h-30V271z M421,91v30h-30V91H421z M150,30h211c0,9.297,0,80.638,0,91H150   C150,110.636,150,39.297,150,30z M90,91h30v30H90V91z M30,151c129.684,0,230.35,0,452,0v185.661l-31,15.246V241   c-15.099,0-371.662,0-391,0v110.729l-30-15V151z"/>
	<rect x="60" y="181" width="30" height="30"/>
	<rect x="120" y="181" width="30" height="30"/>
</g>















</svg>
