<?xml version="1.0" encoding="iso-8859-1"?>
<!-- Generator: Adobe Illustrator 19.0.0, SVG Export Plug-In . SVG Version: 6.00 Build 0)  -->
<svg xmlns="http://www.w3.org/2000/svg" xmlns:xlink="http://www.w3.org/1999/xlink" version="1.1" id="Layer_1" x="0px" y="0px" viewBox="0 0 512 512" style="enable-background:new 0 0 512 512;" xml:space="preserve" width="512" height="512">
<g>
	<path d="M271,391h241V121H271V0H0v512h271V391z M482,361c-9.425,0-341.728,0-361,0V151h361V361z M91,121v240H30V90h211v31H91z    M241,30v30H30V30H241z M241,482H30v-91h211V482z"/>
	<rect x="121" y="421" width="30" height="30"/>
	<path d="M181,316v15h241v-15c0-8.271,6.729-15,15-15h15v-90h-15c-8.271,0-15-6.729-15-15v-15H181v15c0,8.271-6.729,15-15,15h-15v90   h15C174.271,301,181,307.729,181,316z M271,256c0-24.393,13.738-45,30-45s30,20.607,30,45s-13.738,45-30,45S271,280.393,271,256z    M422,238.43v35.141c-12.768,4.527-22.903,14.662-27.43,27.43h-45.464c5.313-8.896,8.952-19.12,10.696-30H392v-30h-32.198   c-1.745-10.88-5.383-21.104-10.696-30h45.464C399.097,223.768,409.232,233.903,422,238.43z M181,238.43   c12.768-4.527,22.903-14.672,27.43-27.44h44.464c-5.313,8.896-8.951,19.13-10.696,30.01H211v30h31.198   c1.744,10.88,5.383,21.104,10.696,30H208.43c-4.527-12.768-14.662-22.903-27.43-27.43V238.43z"/>
</g>















</svg>
