<?xml version="1.0" encoding="iso-8859-1"?>
<!-- Generator: Adobe Illustrator 19.0.0, SVG Export Plug-In . SVG Version: 6.00 Build 0)  -->
<svg xmlns="http://www.w3.org/2000/svg" xmlns:xlink="http://www.w3.org/1999/xlink" version="1.1" id="Layer_1" x="0px" y="0px" viewBox="0 0 512 512" style="enable-background:new 0 0 512 512;" xml:space="preserve" width="512" height="512">
<g>
	<path d="M443.481,132.157l24.65-24.65l-63.639-63.639l-24.65,24.65C355.909,52.685,329.054,41.536,301,35.791V0h-90v35.791   c-28.054,5.746-54.91,16.894-78.843,32.728l-24.65-24.65l-63.638,63.638l24.65,24.65C52.685,156.09,41.536,182.946,35.791,211H0v90   h35.79c5.746,28.055,16.894,54.911,32.727,78.843l-24.648,24.648l63.638,63.641l24.651-24.65   c23.933,15.834,50.789,26.982,78.843,32.728V512h90v-35.791c28.054-5.746,54.909-16.894,78.843-32.728l24.65,24.65l63.639-63.641   l-24.648-24.648c15.833-23.931,26.979-50.787,32.727-78.843H512v-90h-35.79C470.464,182.945,459.315,156.089,443.481,132.157z    M482,271h-31.389l-1.853,12.861c-8.549,59.324-41.171,93.32-44.605,99.079l21.553,21.552l-21.213,21.213l-21.553-21.553   c-5.739,3.423-39.854,36.074-99.079,44.606L271,450.611V482h-30v-31.389l-12.861-1.853c-59.316-8.545-93.321-41.172-99.078-44.606   l-21.553,21.553l-21.213-21.214l21.552-21.552c-3.433-5.755-36.072-39.846-44.605-99.078L61.389,271H30v-30h31.389l1.853-12.861   c8.545-59.316,41.172-93.321,44.606-99.078l-21.553-21.554l21.212-21.212l21.554,21.553c5.754-3.432,39.851-36.074,99.078-44.606   L241,61.389V30h30v31.389l12.861,1.853c59.314,8.545,93.322,41.172,99.079,44.606l21.553-21.553l21.213,21.212l-21.555,21.554   c3.433,5.755,36.073,39.847,44.607,99.079L450.611,241H482V271z"/>
	<polygon points="271,136 241,136 241,181 211,181 211,271 271,271 271,301 211,301 211,331 241,331 241,376 271,376 271,331    301,331 301,241 241,241 241,211 301,211 301,181 271,181  "/>
	<path d="M256,91c-90.981,0-165,74.019-165,165s74.019,165,165,165s165-74.019,165-165S346.981,91,256,91z M256,391   c-74.439,0-135-60.561-135-135s60.561-135,135-135s135,60.561,135,135S330.439,391,256,391z"/>
	<rect x="151" y="241" width="30" height="30"/>
	<rect x="331" y="241" width="30" height="30"/>
</g>















</svg>
