<?xml version="1.0" encoding="iso-8859-1"?>
<!-- Generator: Adobe Illustrator 19.0.0, SVG Export Plug-In . SVG Version: 6.00 Build 0)  -->
<svg xmlns="http://www.w3.org/2000/svg" xmlns:xlink="http://www.w3.org/1999/xlink" version="1.1" id="Layer_1" x="0px" y="0px" viewBox="0 0 512 512" style="enable-background:new 0 0 512 512;" xml:space="preserve" width="512" height="512">
<g>
	<path d="M286,0h-15v120h15c57.897,0,105.001,47.551,105.001,106v15h120.99v-15C511.991,101.795,410.184,0,286,0z M420.186,211   C413.296,148.003,363.519,97.829,301,90.834V30.568c96.143,7.31,173.123,84.289,180.433,180.432H420.186z"/>
	<path d="M387.806,442.668C428.582,400.217,451,344.744,451,286v-15H331.001v15c0,53.308-39.184,97.543-90.001,104.914V361h30v-90   h-60v-30h60v-30h-30c0-17.863,0-126.49,0-151h-15c-22.486,0-44.501,3.315-65.496,9.715L114.027,0H0v30h97.973l33.807,50.71   C55.243,116.195,0,194.249,0,286c0,124.205,101.816,226,226,226c51.152,0,99.765-17.196,139.397-48.864L397.973,512H512v-30   h-97.973L387.806,442.668z M181,211v90h60v30h-60v30h30v29.914c-50.817-7.371-90-51.606-90-104.914   c0-52.805,39.183-96.623,90-103.924V211H181z M30,286c0-103.029,79.906-187.745,181-195.432v61.26   C143.595,159.314,91,216.631,91,286c0,74.991,60.561,136,135,136c69.41,0,126.753-53.048,134.186-121.01h60.249   C412.787,402.084,328.503,482,226,482C117.925,482,30,394.075,30,286z"/>
	<rect y="60" width="61" height="30"/>
	<rect x="451" y="422" width="61" height="30"/>
</g>















</svg>
