<?xml version="1.0" encoding="iso-8859-1"?>
<!-- Generator: Adobe Illustrator 19.0.0, SVG Export Plug-In . SVG Version: 6.00 Build 0)  -->
<svg xmlns="http://www.w3.org/2000/svg" xmlns:xlink="http://www.w3.org/1999/xlink" version="1.1" id="Layer_1" x="0px" y="0px" viewBox="0 0 512 512" style="enable-background:new 0 0 512 512;" xml:space="preserve" width="512" height="512">
<g>
	<path d="M332,60h-91V30h-32.57C202.239,12.539,185.557,0,166,0s-36.239,12.539-42.43,30H91v30H0v452h332V60z M121,60h30V45   c0-8.271,6.729-15,15-15s15,6.729,15,15v15h30v30h-90V60z M30,90h61v30h150V90h61v302h-91v90H30V90z M280.502,422L241,461.068V422   H280.502z M262.498,482L302,442.932V482H262.498z"/>
	<path d="M362,91h30v46c-18.695,14.063-30,36.324-30,60v15h60v60h30v-60h60v-15c0-23.677-11.305-45.937-30-60V91h30V61H362V91z    M479.409,182h-84.818c7.122-20.051,23.924-25.64,27.409-28.321V91h30v62.679C455.356,156.261,472.263,161.881,479.409,182z"/>
	<path d="M362,332h30v45c-18.695,14.063-30,36.324-30,60v15h60v60h30v-60h60v-15c0-23.677-11.305-45.937-30-60v-45h30v-30H362V332z    M479.409,422h-84.818c7.122-20.051,23.924-25.64,27.409-28.321V332h30v61.679C455.356,396.261,472.263,401.881,479.409,422z"/>
	<polygon points="176.606,177.607 155.394,156.393 106,205.787 86.606,186.393 65.394,207.607 106,248.213  "/>
	<polygon points="106,295.787 86.606,276.393 65.394,297.607 106,338.213 176.606,267.607 155.394,246.393  "/>
	<polygon points="106,385.787 86.606,366.393 65.394,387.607 106,428.213 176.606,357.607 155.394,336.393  "/>
	<rect x="211" y="212" width="60" height="30"/>
	<rect x="211" y="302" width="60" height="30"/>
</g>















</svg>
