<?xml version="1.0" encoding="iso-8859-1"?>
<!-- Generator: Adobe Illustrator 19.0.0, SVG Export Plug-In . SVG Version: 6.00 Build 0)  -->
<svg xmlns="http://www.w3.org/2000/svg" xmlns:xlink="http://www.w3.org/1999/xlink" version="1.1" id="Layer_1" x="0px" y="0px" viewBox="0 0 512 512" style="enable-background:new 0 0 512 512;" xml:space="preserve" width="512" height="512">
<g>
	<rect x="121" y="120" width="30" height="152"/>
	<rect x="241" y="120" width="30" height="152"/>
	<path d="M61,0v512c121.507,0,268.567,0,390,0V0C414.5,0,101.46,0,61,0z M181,422H91V90h90V422z M211,90h90v332h-90V90z M331,90h90   v332h-90V90z M301,30v30h-90V30H301z M181,30v30H91V30H181z M91,482v-30h90v30H91z M211,482v-30h90v30H211z M331,482v-30h90v30H331   z M421,30v30h-90V30H421z"/>
	<rect x="361" y="120" width="30" height="152"/>
	<rect x="361" y="302" width="30" height="30"/>
	<rect x="361" y="362" width="30" height="30"/>
	<rect x="241" y="302" width="30" height="30"/>
	<rect x="241" y="362" width="30" height="30"/>
	<rect x="121" y="302" width="30" height="30"/>
	<rect x="121" y="362" width="30" height="30"/>
</g>















</svg>
