<?xml version="1.0" encoding="iso-8859-1"?>
<!-- Generator: Adobe Illustrator 19.0.0, SVG Export Plug-In . SVG Version: 6.00 Build 0)  -->
<svg xmlns="http://www.w3.org/2000/svg" xmlns:xlink="http://www.w3.org/1999/xlink" version="1.1" id="Layer_1" x="0px" y="0px" viewBox="0 0 512 512" style="enable-background:new 0 0 512 512;" xml:space="preserve" width="512" height="512">
<g>
	<path d="M261.525,482c23.144,18.756,52.528,30,84.475,30c74.439,0,135-61.009,135-136c0-69.369-52.594-126.676-120-134.162V181h-60   v-60h60V0H91v91H31v120h60v60H31v120h60v91H261.525z M181,421v-30h30.825c2.452,22.411,10.322,43.201,22.271,61H121v-61h30v30H181z    M241,376c0-52.805,39.183-96.623,90-103.924V301h-30v90h60v30h-60v30h30v29.914C280.183,473.543,241,429.308,241,376z M451,376   c0,53.308-39.183,97.543-90,104.914V451h30v-90h-60v-30h60v-30h-30v-28.924C411.817,279.377,451,323.195,451,376z M121,30h30v31h30   V30h30v31h30V30h30v31h30V30h30v61H121V30z M61,121h30v30h30v-30h30v30h30v-30h30v30h30v-30h30v60c-11.144,0-193.272,0-210,0V121z    M121,211h30v30h30v-30h30v30h30v-30c10.492,0,19.508,0,30,0v30h30v-30h30v30.838c-26.238,2.914-50.228,13.376-69.749,29.162H256   H121V211z M61,361v-60h30v30h30v-30h30v30h30l-0.01-30.01h52.806c-11.764,17.541-19.512,37.99-21.958,60.01H61z"/>
</g>















</svg>
