<?xml version="1.0" encoding="iso-8859-1"?>
<!-- Generator: Adobe Illustrator 19.0.0, SVG Export Plug-In . SVG Version: 6.00 Build 0)  -->
<svg xmlns="http://www.w3.org/2000/svg" xmlns:xlink="http://www.w3.org/1999/xlink" version="1.1" id="Layer_1" x="0px" y="0px" viewBox="0 0 512 512" style="enable-background:new 0 0 512 512;" xml:space="preserve" width="512" height="512">
<g>
	<path d="M0,512h512V0H0V512z M30,482V150h452v332H30z M482,30v90H30V30H482z"/>
	<rect x="61" y="60" width="30" height="30"/>
	<rect x="121" y="60" width="30" height="30"/>
	<rect x="181" y="60" width="30" height="30"/>
	<rect x="271" y="60" width="181" height="30"/>
	<path d="M166,180c-57.897,0-105,47.103-105,105s47.103,105,105,105s105-47.103,105-105S223.897,180,166,180z M151,211.509v65.463   l-54.45,36.3C92.983,304.541,91,295,91,285C91,248.781,116.808,218.478,151,211.509z M113.213,338.219L166,303.028l52.787,35.191   C205.224,351.673,186.568,360,166,360S126.776,351.673,113.213,338.219z M235.45,313.272l-54.45-36.3v-65.463   c34.192,6.968,60,37.271,60,73.491C241,295,239.017,304.541,235.45,313.272z"/>
	<polygon points="422,422 391,422 391,330 361,330 361,422 331,422 331,360 301,360 301,452 452,452 452,300 422,300  "/>
	<rect x="301" y="180" width="151" height="30"/>
	<rect x="301" y="240" width="151" height="30"/>
	<rect x="91" y="422" width="150" height="30"/>
</g>















</svg>
