<?xml version="1.0" encoding="iso-8859-1"?>
<!-- Generator: Adobe Illustrator 19.0.0, SVG Export Plug-In . SVG Version: 6.00 Build 0)  -->
<svg xmlns="http://www.w3.org/2000/svg" xmlns:xlink="http://www.w3.org/1999/xlink" version="1.1" id="Layer_1" x="0px" y="0px" viewBox="0 0 512.146 512.146" style="enable-background:new 0 0 512.146 512.146;" xml:space="preserve" width="512" height="512">
<g>
	<path d="M201.285,44.479l-23.234-19.845L0.073,220.346v291.8h512V219.208L254.118,0L201.285,44.479z M254.028,39.292   l219.711,186.71l-30.41,25.202L224.408,64.229L254.028,39.292z M171.011,374.857L30.073,469.075V258.058L171.011,374.857z    M200.625,391.146h110.896l136.124,91H64.501L200.625,391.146z M341.135,374.857l140.938-116.799v211.017L341.135,374.857z    M180.679,66.333l239.205,204.3l-109.219,90.513H201.48L36.737,224.618L180.679,66.333z"/>
	<rect x="171.023" y="115.075" transform="matrix(0.7604 0.6495 -0.6495 0.7604 129.0499 -89.6476)" width="29.999" height="30"/>
	<rect x="216.647" y="154.042" transform="matrix(0.7604 0.6494 -0.6494 0.7604 165.283 -109.9408)" width="30" height="30"/>
	<rect x="262.271" y="193.009" transform="matrix(0.7604 0.6494 -0.6494 0.7604 201.5207 -130.235)" width="30" height="30"/>
	<rect x="117.68" y="199.666" transform="matrix(0.7604 0.6495 -0.6495 0.7604 185.5805 -73.7032)" width="150" height="30.001"/>
	<rect x="138.714" y="185.291" transform="matrix(-0.6494 0.7604 -0.7604 -0.6494 451.4708 312.4412)" width="30" height="150"/>
</g>















</svg>
