<?xml version="1.0" encoding="iso-8859-1"?>
<!-- Generator: Adobe Illustrator 19.0.0, SVG Export Plug-In . SVG Version: 6.00 Build 0)  -->
<svg xmlns="http://www.w3.org/2000/svg" xmlns:xlink="http://www.w3.org/1999/xlink" version="1.1" id="Layer_1" x="0px" y="0px" viewBox="0 0 512 512" style="enable-background:new 0 0 512 512;" xml:space="preserve" width="512" height="512">
<g>
	<path d="M452,286H302v-30h30c66.168,0,120-53.832,120-120h-30c0,49.626-40.374,90-90,90h-30v-90h-30v180h180V286z"/>
	<rect x="272" y="346" width="90" height="30"/>
	<rect x="272" y="406" width="90" height="30"/>
	<path d="M452,16H257c-11.517,0-22.032,4.354-30,11.495C219.032,20.354,208.517,16,197,16H0c0,6.945,0,383.221,0,390h197   c5.259,0,10.305-0.915,15-2.58V496h231.213L512,427.213V76h-60V16z M257,46h165v30H242V61C242,52.729,248.729,46,257,46z M30,46   h167c8.271,0,15,6.729,15,15c0,12.326,0,235.382,0,257.58c-4.695-1.665-9.741-2.58-15-2.58H30V46z M197,376H30v-30h167   c8.271,0,15,6.729,15,15S205.271,376,197,376z M430.787,466H422v-60h60v8.787L430.787,466z M482,376h-90v90H242V361V106h240V376z"/>
	<rect x="60" y="76" width="122" height="30"/>
	<rect x="60" y="136" width="122" height="30"/>
	<rect x="60" y="196" width="122" height="30"/>
	<rect x="60" y="256" width="122" height="30"/>
</g>















</svg>
