<?xml version="1.0" encoding="iso-8859-1"?>
<!-- Generator: Adobe Illustrator 19.0.0, SVG Export Plug-In . SVG Version: 6.00 Build 0)  -->
<svg xmlns="http://www.w3.org/2000/svg" xmlns:xlink="http://www.w3.org/1999/xlink" version="1.1" id="Layer_1" x="0px" y="0px" viewBox="0 0 512 512" style="enable-background:new 0 0 512 512;" xml:space="preserve" width="512" height="512">
<g>
	<path d="M10.865,0c0,21.327,0,431.092,0,451c0,32.894,26.584,61,60,61h271c33.424,0,60-28.112,60-61v-30h-60V147.42   c5.582-1.98,10.66-5.028,14.987-8.904L377.594,180h123.541l-30-60h20.729V90h-20.729l30-60H377.594l-20.742,41.484   c-4.327-3.875-9.405-6.924-14.987-8.904V0H10.865z M341.865,482H122.43c5.499-9.336,8.435-19.985,8.435-31.01h241   C371.865,467.794,358.126,482,341.865,482z M100.865,421v30c0,16.804-13.738,31-30,31s-30-14.196-30-31c0-35.051,0-400.484,0-421   h271v30h-106c-19.555,0-36.228,12.542-42.42,30h-62.58v30h62.58c6.192,17.458,22.865,30,42.42,30h106v271H100.865z M452.594,150   h-56.459l-15-30h56.459L452.594,150z M452.594,60l-15,30h-56.459l15-30H452.594z M326.865,120L206.3,120   c-8.067,0-15.019-6.187-15.416-14.244C190.458,97.143,197.343,90,205.865,90h121c8.637,0,15,7.024,15,15.381   C341.865,114.291,334.404,120,326.865,120z"/>
	<rect x="70.865" y="180" width="211" height="30"/>
	<rect x="70.865" y="240" width="211" height="30"/>
	<rect x="70.865" y="300" width="211" height="30"/>
	<rect x="70.865" y="360" width="211" height="30"/>
</g>















</svg>
