<?xml version="1.0" encoding="iso-8859-1"?>
<!-- Generator: Adobe Illustrator 19.0.0, SVG Export Plug-In . SVG Version: 6.00 Build 0)  -->
<svg xmlns="http://www.w3.org/2000/svg" xmlns:xlink="http://www.w3.org/1999/xlink" version="1.1" id="Layer_1" x="0px" y="0px" viewBox="0 0 512 512" style="enable-background:new 0 0 512 512;" xml:space="preserve" width="512" height="512">
<g>
	<path d="M362,362H210v-30h32c66.168,0,120-53.832,120-120h-30c0,49.626-40.374,90-90,90h-32v-90h-30v180h182V362z"/>
	<path d="M120,182H60v30H0v221.79c0,40.865,31.149,78.194,74.858,78.194c0.047,0,0.094-0.003,0.142-0.003V512h362   c41.355,0,75-33.645,75-75V0H120V182z M90,212h30v210h-15c-8.271,0-15-6.729-15-15V212z M30,433.79V242h30v165   c0,24.813,20.187,44.99,45,44.99h12.432c-2.617,7.405-7.162,14.089-13.299,19.309C90.861,482.585,77.4,481.577,75,482v0.001   C48.042,481.965,30,458.709,30,433.79z M150,30h332v407c0,24.813-20.187,45-45,45H134.995C144.654,469.134,150,453.403,150,437   C150,414.407,150,35.771,150,30z"/>
	<path d="M452,60H180v122h272V60z M422,152H210V90h212V152z"/>
	<rect x="392" y="242" width="60" height="30"/>
	<rect x="392" y="302" width="60" height="30"/>
	<rect x="392" y="362" width="60" height="30"/>
	<rect x="180" y="422" width="272" height="30"/>
</g>















</svg>
