<?xml version="1.0" encoding="iso-8859-1"?>
<!-- Generator: Adobe Illustrator 19.0.0, SVG Export Plug-In . SVG Version: 6.00 Build 0)  -->
<svg xmlns="http://www.w3.org/2000/svg" xmlns:xlink="http://www.w3.org/1999/xlink" version="1.1" id="Layer_1" x="0px" y="0px" viewBox="0 0 512 512" style="enable-background:new 0 0 512 512;" xml:space="preserve" width="512" height="512">
<g>
	<path d="M332,197v15h60v60h30v-60h60v-15c0-23.676-11.306-45.937-30-60V91h30V61H332v30h30v46C343.306,151.063,332,173.324,332,197   z M422,91v62.679c3.356,2.582,20.263,8.202,27.409,28.321h-84.818c7.122-20.051,23.924-25.64,27.409-28.321V91H422z"/>
	<path d="M241,302H38.614C11.507,337.673,0,374.908,0,407c0,31.94,11.388,69.171,38.614,105H241v-30h91V332h-91V302z M211,482   H53.911C46.193,469.894,30,440.498,30,407c0-33.497,16.193-62.893,23.911-75H211V482z M241,452v-30h61v30H241z M302,362v30h-61v-30   H302z"/>
	<path d="M474.533,302H362v210h112.533C496.882,481.611,512,444.984,512,407C512,368.984,496.858,332.356,474.533,302z M458.936,482   H392V332h66.934C466.457,344.237,482,373.568,482,407C482,440.443,466.447,469.782,458.936,482z"/>
	<path d="M272,122h-83.051l-5.832-35.382C199.466,79.869,211,63.757,211,45c0-24.813-20.187-45-45-45h-60C81.187,0,61,20.187,61,45   c0,18.757,11.534,34.869,27.883,41.618L83.051,122H0v150h272V122z M106,60c-8.271,0-15-6.729-15-15s6.729-15,15-15h60   c8.271,0,15,6.729,15,15s-6.729,15-15,15h-17.675l10.22,62h-45.09l10.22-62H106z M163.49,152l14.835,90H93.675l14.835-90H163.49z    M30,152h48.106l-14.835,90H30V152z M242,242h-33.271l-14.835-90H242V242z"/>
</g>















</svg>
