<?xml version="1.0" encoding="iso-8859-1"?>
<!-- Generator: Adobe Illustrator 19.0.0, SVG Export Plug-In . SVG Version: 6.00 Build 0)  -->
<svg xmlns="http://www.w3.org/2000/svg" xmlns:xlink="http://www.w3.org/1999/xlink" version="1.1" id="Layer_1" x="0px" y="0px" viewBox="0 0 512 512" style="enable-background:new 0 0 512 512;" xml:space="preserve" width="512" height="512">
<g>
	<path d="M422,0v30h-32.58C383.228,12.541,366.555,0,347,0c-11.517,0-22.032,4.353-30,11.495C309.032,4.353,298.517,0,287,0   c-19.555,0-36.228,12.541-42.42,30h-35.16C203.228,12.541,186.555,0,167,0s-36.228,12.541-42.42,30H90V0H0v481h90v-30h147.801   l60.53,61h144.882l4.394-4.394C488.529,466.683,512,409.656,512,351.147c0-6.093,0-344.932,0-351.147H422z M332,211v-30h32.58   c6.192,17.459,22.865,30,42.42,30c5.259,0,10.305-0.915,15-2.58V241h-30v-30H332z M392,166c0-8.271,6.729-15,15-15s15,6.729,15,15   s-6.729,15-15,15S392,174.271,392,166z M347,30c8.271,0,15,6.729,15,15s-6.729,15-15,15s-15-6.729-15-15S338.729,30,347,30z    M287,30c8.271,0,15,6.729,15,15s-6.729,15-15,15s-15-6.729-15-15S278.729,30,287,30z M167,30c8.271,0,15,6.729,15,15   s-6.729,15-15,15s-15-6.729-15-15S158.729,30,167,30z M124.58,60c6.192,17.459,22.865,30,42.42,30s36.228-12.541,42.42-30h35.16   c6.192,17.459,22.865,30,42.42,30c11.517,0,22.032-4.353,30-11.495C324.968,85.647,335.483,90,347,90   c19.555,0,36.228-12.541,42.42-30H422v63.58c-4.695-1.665-9.741-2.58-15-2.58c-19.555,0-36.228,12.541-42.42,30H332v-30h-90v30   h-32.58c-6.192-17.459-22.865-30-42.42-30s-36.228,12.541-42.42,30H90V60H124.58z M190.787,331H90v-60h152v56.365l-23.789-23.789   L190.787,331z M242,241H90v-60h34.58c6.192,17.459,22.865,30,42.42,30s36.228-12.541,42.42-30H242V241z M152,166   c0-8.271,6.729-15,15-15s15,6.729,15,15s-6.729,15-15,15S152,174.271,152,166z M60,451H30V30h30V451z M90,421v-60h70.787   l-6.17,6.17L208.032,421H90z M482,351.147c0,48.548-18.646,95.883-51.357,130.853H310.825L196.961,367.252l21.25-21.25L272,399.791   V151h30v210h30V241h30v120h30v-90h30c0,29.93,0,85.263,0,90h30v-60h30V351.147z M452,271c0-7.611,0-228.007,0-241h30v241H452z"/>
</g>















</svg>
