<?xml version="1.0" encoding="iso-8859-1"?>
<!-- Generator: Adobe Illustrator 19.0.0, SVG Export Plug-In . SVG Version: 6.00 Build 0)  -->
<svg xmlns="http://www.w3.org/2000/svg" xmlns:xlink="http://www.w3.org/1999/xlink" version="1.1" id="Layer_1" x="0px" y="0px" viewBox="0 0 512.213 512.213" style="enable-background:new 0 0 512.213 512.213;" xml:space="preserve" width="512" height="512">
<g>
	<path d="M317.213,0c-107.523,0-195,87.477-195,195c0,48.374,17.712,92.685,46.984,126.803l-18.404,18.404l-21.213-21.213L0,448.573   l63.64,63.64l129.578-129.579l-21.213-21.213l18.405-18.404C224.528,372.287,268.839,390,317.213,390c107.523,0,195-87.477,195-195   S424.736,0,317.213,0z M63.64,469.787l-21.214-21.213l87.153-87.153l21.213,21.213L63.64,469.787z M317.213,360   c-90.981,0-165-74.019-165-165s74.019-165,165-165s165,74.019,165,165S408.194,360,317.213,360z"/>
	<path d="M317.213,60c-74.439,0-135,60.561-135,135s60.561,135,135,135s135-60.561,135-135S391.652,60,317.213,60z M212.213,195   c0-52.805,39.183-96.623,90-103.924V120h-30v90h60v30h-60v30h30v28.924C251.396,291.623,212.213,247.805,212.213,195z    M332.213,298.924V270h30v-90h-60v-30h60v-30h-30V91.076c50.817,7.301,90,51.119,90,103.924S383.03,291.623,332.213,298.924z"/>
</g>















</svg>
