<?xml version="1.0" encoding="iso-8859-1"?>
<!-- Generator: Adobe Illustrator 19.0.0, SVG Export Plug-In . SVG Version: 6.00 Build 0)  -->
<svg xmlns="http://www.w3.org/2000/svg" xmlns:xlink="http://www.w3.org/1999/xlink" version="1.1" id="Layer_1" x="0px" y="0px" viewBox="0 0 512 512" style="enable-background:new 0 0 512 512;" xml:space="preserve" width="512" height="512">
<g>
	<path d="M136,0c-24.813,0-45,20.187-45,45v15H31v452c19.599,0,428.461,0,450,0V60c-90.657,0-296.851,0-300,0V45   C181,20.187,160.813,0,136,0z M451,90v392h-30V90H451z M121,45c0-8.271,6.729-15,15-15s15,6.729,15,15v15h-30V45z M361,90h30v392   h-99.068L361,412.165V90z M271,460.502V421h39.068L271,460.502z M331,90v301c-3.943,0-183.631,0-240,0v30h150v61H61V90h90v16   c0,8.271-6.729,15-15,15s-15-6.729-15-15H91c0,24.813,20.187,45,45,45s45-20.187,45-45V90H331z"/>
	<rect x="91" y="211" width="210" height="30"/>
	<rect x="181" y="151" width="120" height="30"/>
	<rect x="91" y="271" width="210" height="30"/>
	<rect x="91" y="331" width="210" height="30"/>
</g>















</svg>
