<?xml version="1.0" encoding="iso-8859-1"?>
<!-- Generator: Adobe Illustrator 19.0.0, SVG Export Plug-In . SVG Version: 6.00 Build 0)  -->
<svg xmlns="http://www.w3.org/2000/svg" xmlns:xlink="http://www.w3.org/1999/xlink" version="1.1" id="Layer_1" x="0px" y="0px" viewBox="0 0 512.308 512.308" style="enable-background:new 0 0 512.308 512.308;" xml:space="preserve" width="512" height="512">
<g>
	<rect x="241.154" y="91.308" width="30" height="30"/>
	<rect x="301.154" y="91.308" width="30" height="30"/>
	<rect x="181.154" y="91.308" width="30" height="30"/>
	<path d="M482.154,362.308h-30v-181h30V96.398L256.154,0l-226,96.398v84.909h30v181h-30v60h-30v90h512v-90h-30V362.308z    M355.424,422.308l-15-30h111.73v30H355.424z M190.424,422.308l15-30h101.46l15,30H190.424z M336.884,452.308l15,30h-191.46l15-30   H336.884z M361.154,181.308v181h-30v-121h-150v121h-30v-181H361.154z M211.154,362.308v-91h30v91H211.154z M271.154,271.308h30v91   h-30V271.308z M422.154,362.308h-31v-181h31V362.308z M60.154,116.217l196-83.602l196,83.602v35.091h-392V116.217z M90.154,181.308   h31v181h-31V181.308z M60.154,392.308h111.73l-15,30h-96.73V392.308z M30.154,452.308h111.73l-15,30h-96.73V452.308z    M482.154,482.308h-96.73l-15-30h111.73V482.308z"/>
</g>















</svg>
