<?xml version="1.0" encoding="iso-8859-1"?>
<!-- Generator: Adobe Illustrator 19.0.0, SVG Export Plug-In . SVG Version: 6.00 Build 0)  -->
<svg xmlns="http://www.w3.org/2000/svg" xmlns:xlink="http://www.w3.org/1999/xlink" version="1.1" id="Layer_1" x="0px" y="0px" viewBox="0 0 512 512" style="enable-background:new 0 0 512 512;" xml:space="preserve" width="512" height="512">
<g>
	<path d="M421,512v-30h30V0H61v482h30v30h90v-30h150v30H421z M91,331v-30h60V181.001L91,181v-30h60V91h210v301H151v-61H91z M91,271   v-60l30,0.001V271H91z M151,452v30h-30v-30H91v-91h30v61h270V61H121v60H91V30h330v422h-30v30h-30v-30H151z"/>
	<path d="M331,121H181v90h150V121z M301,181h-90v-30h90V181z"/>
	<rect x="241" y="241" width="30" height="30"/>
	<rect x="181" y="241" width="30" height="30"/>
	<rect x="301" y="241" width="30" height="30"/>
	<rect x="241" y="301" width="30" height="30"/>
	<rect x="181" y="301" width="30" height="30"/>
	<rect x="301" y="301" width="30" height="30"/>
</g>















</svg>
