<?xml version="1.0" encoding="iso-8859-1"?>
<!-- Generator: Adobe Illustrator 19.0.0, SVG Export Plug-In . SVG Version: 6.00 Build 0)  -->
<svg xmlns="http://www.w3.org/2000/svg" xmlns:xlink="http://www.w3.org/1999/xlink" version="1.1" id="Layer_1" x="0px" y="0px" viewBox="0 0 512 512" style="enable-background:new 0 0 512 512;" xml:space="preserve" width="512" height="512">
<g>
	<rect x="75.347" y="90" width="180" height="30"/>
	<path d="M15.347,512h390V290.484l91.307-76.857l-56.642-69.948l-34.665,29.179V98.787L306.56,0H15.347V512z M315.347,211h-150v-30   h150V211z M135.347,211h-30v-30h30V211z M105.347,241h30v121h-30V241z M105.347,392h30v30h-30V392z M165.347,392h150v30h-150V392z    M315.347,362h-150V241h150v7.616l-24.555,20.669l-26.538,79.287l51.093-5.826V362z M335.24,310.283l-27.588,3.146l8.911-26.624   l73.465-61.838l18.876,23.31L335.24,310.283z M454.815,209.631l-22.956,19.323l-18.876-23.31l22.956-19.323L454.815,209.631z    M315.347,51.213L354.133,90h-38.787V51.213z M45.347,30h240v90h90v78.111l-30,25.252V151h-270v301h270V339.325l2.286-0.261   l27.714-23.328V482h-330V30z"/>
</g>















</svg>
