<?xml version="1.0" encoding="iso-8859-1"?>
<!-- Generator: Adobe Illustrator 19.0.0, SVG Export Plug-In . SVG Version: 6.00 Build 0)  -->
<svg xmlns="http://www.w3.org/2000/svg" xmlns:xlink="http://www.w3.org/1999/xlink" version="1.1" id="Layer_1" x="0px" y="0px" viewBox="0 0 511.615 511.615" style="enable-background:new 0 0 511.615 511.615;" xml:space="preserve" width="512" height="512">
<g>
	<path d="M0,450.808h196c11.517,0,22.032-4.354,30-11.495c7.968,7.142,18.483,11.495,30,11.495h196c0-32.339,0-72.563,0-108.036   l36.385,44.527l23.23-18.982l-57.918-70.879C471.242,278.663,482,253.47,482,225.808c0-28.543-11.454-54.458-30-73.404V60.808H256   c-11.517,0-22.032,4.354-30,11.495c-7.968-7.141-18.483-11.495-30-11.495H0C0,67.752,0,444.028,0,450.808z M196,420.808H30v-30h166   c8.271,0,15,6.729,15,15S204.271,420.808,196,420.808z M422,420.808H256c-8.271,0-15-6.729-15-15s6.729-15,15-15h166V420.808z    M452,225.808c0,41.355-33.645,75-75,75s-75-33.645-75-75s33.645-75,75-75S452,184.453,452,225.808z M256,90.808h166v40.145   c-13.646-6.5-28.905-10.145-45-10.145c-57.897,0-105,47.103-105,105s47.103,105,105,105c16.095,0,31.354-3.645,45-10.145v40.145   H256c-5.259,0-10.305,0.915-15,2.58v-257.58C241,97.537,247.729,90.808,256,90.808z M196,90.808c8.271,0,15,6.729,15,15v257.58   c-4.695-1.665-9.741-2.58-15-2.58H30v-270H196z"/>
	<rect x="60" y="120.808" width="121" height="30"/>
	<rect x="60" y="180.808" width="121" height="30"/>
	<rect x="60" y="240.808" width="121" height="30"/>
	<rect x="60" y="300.808" width="121" height="30"/>
</g>















</svg>
