<?xml version="1.0" encoding="iso-8859-1"?>
<!-- Generator: Adobe Illustrator 19.0.0, SVG Export Plug-In . SVG Version: 6.00 Build 0)  -->
<svg xmlns="http://www.w3.org/2000/svg" xmlns:xlink="http://www.w3.org/1999/xlink" version="1.1" id="Layer_1" x="0px" y="0px" viewBox="0 0 514.774 514.774" style="enable-background:new 0 0 514.774 514.774;" xml:space="preserve" width="512" height="512">
<g>
	<path d="M78.744,218.205l45.78,296.569h265.725l45.771-296.512c8.749-0.283,17.58,1.158,25.957,4.397l20.409,7.891V94.774h-45.792   L316.547,0L261.69,51.429L196.547,0L95.456,94.774H32.387v136.848l20.688-8.477C61.348,219.755,70.073,218.125,78.744,218.205z    M320.027,305.774h-47.64v-86.033c7.848,1.739,15.457,4.932,22.429,9.58c9.645,6.431,20.13,10.93,30.953,13.531L320.027,305.774z    M311.815,395.774h-39.428v-60h44.903L311.815,395.774z M347.413,335.774h40.112l-9.262,60h-36.325L347.413,335.774z    M127.248,335.774h40.112l5.475,60H136.51L127.248,335.774z M197.484,335.774h44.903v60h-39.428L197.484,335.774z M242.387,425.774   v59H211.08l-5.384-59H242.387z M272.387,425.774h36.69l-5.384,59h-31.307V425.774z M242.387,305.774h-47.64l-5.709-62.57   c11.343-2.538,22.341-7.164,32.419-13.882c6.527-4.351,13.614-7.417,20.931-9.22V305.774z M159.084,245.073l5.539,60.701h-42.006   L110.4,226.628c1.498,0.838,2.973,1.731,4.416,2.693C128.377,238.362,143.595,243.603,159.084,245.073z M141.142,425.774h34.431   l5.384,59h-30.707L141.142,425.774z M333.818,484.774l5.383-59h34.431l-9.108,59H333.818z M392.156,305.774h-42.006l5.526-60.564   c16.008-1.266,31.781-6.556,45.779-15.889c0.911-0.607,1.836-1.183,2.771-1.741L392.156,305.774z M318.227,39.548l69.952,55.226   h-71.584l-31.093-24.547L318.227,39.548z M198.227,39.548l69.952,55.226H139.318L198.227,39.548z M62.387,124.774h390v64.505   c-23.369-3.49-47.527,1.718-67.571,15.081c-22.283,14.854-51.076,14.855-73.359,0c-32.391-21.594-74.25-21.594-106.641,0   c-22.283,14.854-51.076,14.854-73.359,0c-16.044-10.697-34.607-16.164-53.307-16.164c-5.262,0-10.533,0.433-15.763,1.304V124.774z"/>
</g>















</svg>
