<?xml version="1.0" encoding="iso-8859-1"?>
<!-- Generator: Adobe Illustrator 19.0.0, SVG Export Plug-In . SVG Version: 6.00 Build 0)  -->
<svg xmlns="http://www.w3.org/2000/svg" xmlns:xlink="http://www.w3.org/1999/xlink" version="1.1" id="Layer_1" x="0px" y="0px" viewBox="0 0 512 512" style="enable-background:new 0 0 512 512;" xml:space="preserve" width="512" height="512">
<g>
	<path d="M0,450h131.11l-15.246,62h280.271l-15.246-62H512V0H0V450z M154.136,482l22.623-92h158.482l22.623,92H154.136z M30,30h452   v390H373.513l-7.377-30H392v-30H120v30h25.864l-7.377,30H30V30z"/>
	<path d="M272,60H60v270h212V60z M242,90v30H90V90H242z M90,300V150h152v150H90z"/>
	<path d="M452,60H302v90h150V60z M422,120h-90V90h90V120z"/>
	<rect x="302" y="180" width="30" height="30"/>
	<rect x="362" y="180" width="30" height="30"/>
	<rect x="422" y="180" width="30" height="30"/>
	<rect x="302" y="240" width="30" height="30"/>
	<rect x="362" y="240" width="30" height="30"/>
	<rect x="422" y="240" width="30" height="30"/>
	<rect x="302" y="300" width="30" height="30"/>
	<rect x="362" y="300" width="30" height="30"/>
	<rect x="422" y="300" width="30" height="30"/>
</g>















</svg>
